<?xml version="1.0" encoding="iso-8859-1"?>
<!-- Generator: Adobe Illustrator 19.0.0, SVG Export Plug-In . SVG Version: 6.00 Build 0)  -->
<svg version="1.1" id="Layer_1" xmlns="http://www.w3.org/2000/svg" xmlns:xlink="http://www.w3.org/1999/xlink" x="0px" y="0px"
	 viewBox="0 0 512 512" style="enable-background:new 0 0 512 512;" xml:space="preserve">
<rect x="237.844" y="94.622" style="fill:#FFE98F;" width="36.323" height="181.616"/>
<rect x="256.006" y="94.622" style="fill:#FFDA44;" width="18.162" height="181.616"/>
<g>
	
		<rect x="78.846" y="230.023" transform="matrix(-0.9511 -0.309 0.309 -0.9511 254.3257 536.6486)" style="fill:#FFE98F;" width="181.623" height="36.325"/>
	
		<rect x="184.447" y="258.881" transform="matrix(-0.809 -0.5878 0.5878 -0.809 160.9713 751.681)" style="fill:#FFE98F;" width="36.323" height="181.615"/>
</g>
<g>
	
		<rect x="218.581" y="331.539" transform="matrix(-0.5878 -0.809 0.809 -0.5878 208.3382 805.5522)" style="fill:#FFDA44;" width="181.615" height="36.323"/>
	
		<rect x="324.179" y="157.372" transform="matrix(-0.309 -0.9511 0.9511 -0.309 212.0827 650.4579)" style="fill:#FFDA44;" width="36.325" height="181.623"/>
</g>
<circle style="fill:#C9E3F7;" cx="256.006" cy="64.353" r="54.485"/>
<path style="fill:#78B9EB;" d="M256,9.863c30.091,0,54.485,24.393,54.485,54.485S286.091,118.833,256,118.833"/>
<circle style="fill:#FF9811;" cx="256.006" cy="276.238" r="84.754"/>
<path style="fill:#FF5023;" d="M256,191.479c46.809,0,84.754,37.946,84.754,84.754S302.809,360.987,256,360.987"/>
<circle style="fill:#C9E3F7;" cx="380.546" cy="447.647" r="54.485"/>
<path style="fill:#78B9EB;" d="M380.544,393.167c30.091,0,54.485,24.395,54.485,54.485c0,30.093-24.393,54.485-54.485,54.485"/>
<circle style="fill:#C9E3F7;" cx="457.515" cy="210.759" r="54.485"/>
<path style="fill:#78B9EB;" d="M457.515,156.273c30.091,0,54.485,24.392,54.485,54.485c0,30.09-24.393,54.485-54.485,54.485"/>
<circle style="fill:#C9E3F7;" cx="131.454" cy="447.647" r="54.485"/>
<path style="fill:#78B9EB;" d="M131.457,393.167c30.091,0,54.485,24.393,54.485,54.485s-24.393,54.485-54.485,54.485"/>
<circle style="fill:#C9E3F7;" cx="54.485" cy="210.759" r="54.485"/>
<path style="fill:#78B9EB;" d="M54.485,156.273c30.091,0,54.485,24.392,54.485,54.485c0,30.09-24.393,54.485-54.485,54.485"/>
<g>
</g>
<g>
</g>
<g>
</g>
<g>
</g>
<g>
</g>
<g>
</g>
<g>
</g>
<g>
</g>
<g>
</g>
<g>
</g>
<g>
</g>
<g>
</g>
<g>
</g>
<g>
</g>
<g>
</g>
</svg>
