<?xml version="1.0" encoding="iso-8859-1"?>
<!-- Generator: Adobe Illustrator 19.0.0, SVG Export Plug-In . SVG Version: 6.00 Build 0)  -->
<svg version="1.1" id="Layer_1" xmlns="http://www.w3.org/2000/svg" xmlns:xlink="http://www.w3.org/1999/xlink" x="0px" y="0px"
	 viewBox="0 0 512 512" style="enable-background:new 0 0 512 512;" xml:space="preserve">
<g>
	<path style="fill:#31C0D8;" d="M318.694,141.061c14.43,0,26.122,11.692,26.122,26.122s-11.692,26.122-26.122,26.122
		c-14.43,0-26.122-11.692-26.122-26.122S304.264,141.061,318.694,141.061z"/>
	<path style="fill:#31C0D8;" d="M193.306,141.061c14.43,0,26.122,11.692,26.122,26.122s-11.692,26.122-26.122,26.122
		c-14.43,0-26.122-11.692-26.122-26.122S178.876,141.061,193.306,141.061z"/>
</g>
<g>
	<path style="fill:#FFD248;" d="M256,265.362c51.158,13.782,88.816,60.51,88.816,116.025c0,66.361-53.802,120.163-120.163,120.163
		c-20.814,0-40.396-5.308-57.469-14.618c37.345-20.386,62.694-59.998,62.694-105.545s-25.349-85.159-62.694-105.545
		c17.074-9.31,36.655-14.618,57.469-14.618C235.499,261.224,246.011,262.656,256,265.362z"/>
	<polygon style="fill:#FFD248;" points="478.48,193.902 452.901,218.833 458.94,254.036 427.321,237.422 395.703,254.036 
		401.742,218.833 376.163,193.902 411.512,188.761 427.321,156.735 443.131,188.761 	"/>
	<polygon style="fill:#FFD248;" points="135.837,193.902 110.258,218.833 116.297,254.036 84.679,237.422 53.06,254.036 
		59.099,218.833 33.52,193.902 68.869,188.761 84.679,156.735 100.488,188.761 	"/>
</g>
<rect x="47.02" y="10.449" style="fill:#8B9296;" width="417.959" height="67.918"/>
<path d="M472.816,86.204V18.286H512V2.612H0v15.673h39.184v67.918h37.658v68.702l-13.176,26.693l-46.985,6.833L50.68,221.57
	l-8.028,46.788l42.028-22.083l42.027,22.083l-8.027-46.788l33.999-33.138l-46.985-6.833l-13.178-26.693V86.204h92.954v47.943
	c-14.958,3.548-26.122,17.009-26.122,33.037c0,18.725,15.235,33.959,33.959,33.959s33.959-15.235,33.959-33.959
	c0-16.028-11.165-29.488-26.122-33.037V86.204h47.02v169.358c-7.708-1.434-15.577-2.174-23.51-2.174
	c-21.366,0-42.536,5.385-61.222,15.575l-12.611,6.876l12.608,6.882c36.153,19.735,58.613,57.543,58.613,98.667
	s-22.459,78.932-58.612,98.667l-12.608,6.882l12.611,6.876c18.686,10.19,39.856,15.575,61.222,15.575c70.58,0,128-57.42,128-128
	c0-55.737-36.233-105.003-88.816-121.871V86.204h47.02v47.943c-14.958,3.548-26.122,17.009-26.122,33.037
	c0,18.725,15.234,33.959,33.959,33.959c18.726,0,33.959-15.235,33.959-33.959c0-16.028-11.165-29.488-26.122-33.037V86.204h92.954
	v68.702l-13.176,26.693l-46.985,6.834l33.999,33.138l-8.028,46.788l42.027-22.083l42.027,22.083l-8.027-46.787l33.998-33.138
	l-46.985-6.833l-13.176-26.693V86.204H472.816z M118.997,199.372l-17.159,16.725l4.052,23.617l-21.211-11.144l-21.21,11.145
	l4.052-23.617l-17.159-16.726l23.713-3.449l10.605-21.484l10.605,21.484L118.997,199.372z M211.592,167.184
	c0,10.082-8.203,18.286-18.286,18.286c-10.082,0-18.286-8.203-18.286-18.286c0-10.082,8.203-18.286,18.286-18.286
	C203.388,148.898,211.592,157.101,211.592,167.184z M336.98,381.388c0,61.937-50.39,112.327-112.327,112.327
	c-14.079,0-28.06-2.663-41.089-7.774c33.727-23.838,54.15-62.686,54.15-104.552s-20.423-80.714-54.15-104.552
	c13.03-5.111,27.01-7.774,41.089-7.774c9.974,0,19.83,1.301,29.308,3.868C302.841,286.097,336.98,330.698,336.98,381.388z
	 M336.98,167.184c0,10.082-8.204,18.286-18.286,18.286c-10.082,0-18.286-8.203-18.286-18.286c0-10.082,8.204-18.286,18.286-18.286
	C328.776,148.898,336.98,157.101,336.98,167.184z M461.64,199.372l-17.159,16.725l4.051,23.618l-21.21-11.145l-21.21,11.145
	l4.052-23.617l-17.16-16.726l23.713-3.448l10.606-21.484l10.605,21.484L461.64,199.372z M54.857,54.857h331.755V39.184H54.857
	V18.286h402.286v52.245H54.857V54.857z"/>
<rect x="407.51" y="39.184" width="26.122" height="15.673"/>
<g>
</g>
<g>
</g>
<g>
</g>
<g>
</g>
<g>
</g>
<g>
</g>
<g>
</g>
<g>
</g>
<g>
</g>
<g>
</g>
<g>
</g>
<g>
</g>
<g>
</g>
<g>
</g>
<g>
</g>
</svg>
