<?xml version="1.0" encoding="iso-8859-1"?>
<!-- Generator: Adobe Illustrator 19.0.0, SVG Export Plug-In . SVG Version: 6.00 Build 0)  -->
<svg version="1.1" id="Layer_1" xmlns="http://www.w3.org/2000/svg" xmlns:xlink="http://www.w3.org/1999/xlink" x="0px" y="0px"
	 viewBox="0 0 370 370" style="enable-background:new 0 0 370 370;" xml:space="preserve">
<g>
	<g>
		<path style="fill:#6FD1E6;" d="M119.548,348.844c0-11.686-9.473-39.672-21.158-39.672s-21.158,27.986-21.158,39.672
			c0,11.684,9.473,21.156,21.158,21.156S119.548,360.527,119.548,348.844z"/>
		<path style="opacity:0.3;fill:#C4E9F2;enable-background:new    ;" d="M109.859,318.076l-32.537,32.537
			c0.596,7.178,4.767,13.334,10.737,16.684l29.775-29.774C116.166,330.947,113.37,323.633,109.859,318.076z"/>
	</g>
	<g>
		<path style="fill:#99DAEA;" d="M119.548,288.016c0-11.685-9.473-39.671-21.158-39.671s-21.158,27.985-21.158,39.671
			c0,11.684,9.473,21.156,21.158,21.156S119.548,299.699,119.548,288.016z"/>
		<path style="opacity:0.5;fill:#C4E9F2;enable-background:new    ;" d="M109.859,257.248l-32.537,32.537
			c0.596,7.178,4.767,13.335,10.737,16.684l29.775-29.775C116.166,270.119,113.37,262.805,109.859,257.248z"/>
	</g>
	<g>
		<path style="fill:#99DAEA;" d="M206.913,348.844c0-11.686-9.472-39.672-21.158-39.672c-11.685,0-21.157,27.986-21.157,39.672
			c0,11.684,9.472,21.156,21.157,21.156S206.913,360.527,206.913,348.844z"/>
		<path style="opacity:0.3;fill:#C4E9F2;enable-background:new    ;" d="M197.224,318.076l-32.537,32.537
			c0.596,7.178,4.767,13.334,10.737,16.684l29.775-29.774C203.531,330.947,200.734,323.633,197.224,318.076z"/>
	</g>
	<g>
		<path style="fill:#6FD1E6;" d="M206.913,288.016c0-11.685-9.472-39.671-21.158-39.671c-11.685,0-21.157,27.985-21.157,39.671
			c0,11.684,9.472,21.156,21.157,21.156S206.913,299.699,206.913,288.016z"/>
		<path style="opacity:0.5;fill:#C4E9F2;enable-background:new    ;" d="M197.224,257.248l-32.537,32.537
			c0.596,7.178,4.767,13.335,10.737,16.684l29.775-29.775C203.531,270.119,200.734,262.805,197.224,257.248z"/>
	</g>
	<g>
		<path style="fill:#6FD1E6;" d="M294.278,348.844c0-11.686-9.473-39.672-21.158-39.672c-11.686,0-21.158,27.986-21.158,39.672
			c0,11.684,9.472,21.156,21.158,21.156C284.805,370,294.278,360.527,294.278,348.844z"/>
		<path style="opacity:0.3;fill:#C4E9F2;enable-background:new    ;" d="M284.589,318.076l-32.537,32.537
			c0.596,7.178,4.767,13.334,10.737,16.684l29.775-29.774C290.896,330.947,288.1,323.633,284.589,318.076z"/>
	</g>
	<g>
		<path style="fill:#99DAEA;" d="M294.278,288.016c0-11.685-9.473-39.671-21.158-39.671c-11.686,0-21.158,27.985-21.158,39.671
			c0,11.684,9.472,21.156,21.158,21.156C284.805,309.172,294.278,299.699,294.278,288.016z"/>
		<path style="opacity:0.5;fill:#C4E9F2;enable-background:new    ;" d="M284.589,257.248l-32.537,32.537
			c0.596,7.178,4.767,13.335,10.737,16.684l29.775-29.775C290.896,270.119,288.1,262.805,284.589,257.248z"/>
	</g>
	<path style="fill:#734F42;" d="M185.001,122.629c-3.52,0-6.373,2.854-6.373,6.372v119.344c0,3.519,2.853,6.372,6.373,6.372
		s6.373-2.854,6.373-6.372V129.001C191.374,125.482,188.521,122.629,185.001,122.629z"/>
	<path style="fill:#E5AB46;" d="M185.001,115.592c-6.941,0-12.379-7.253-12.379-16.512c0-9.258,5.438-16.511,12.379-16.511
		s12.379,7.253,12.379,16.511C197.38,108.339,191.941,115.592,185.001,115.592z M185.001,89.521c-2.567,0-5.427,3.926-5.427,9.559
		c0,5.635,2.86,9.56,5.427,9.56s5.427-3.925,5.427-9.56C190.428,93.447,187.568,89.521,185.001,89.521z"/>
	<path style="fill:#E5AB46;" d="M185.001,89.521c-6.941,0-12.379-7.253-12.379-16.511c0-9.259,5.438-16.512,12.379-16.512
		s12.379,7.253,12.379,16.512S191.941,89.521,185.001,89.521z M185.001,63.451c-2.567,0-5.427,3.926-5.427,9.559
		c0,5.634,2.86,9.559,5.427,9.559s5.427-3.925,5.427-9.559C190.428,67.377,187.568,63.451,185.001,63.451z"/>
	<path style="fill:#E5AB46;" d="M185.001,63.451c-6.941,0-12.379-7.253-12.379-16.511s5.438-16.51,12.379-16.51
		s12.379,7.253,12.379,16.511S191.941,63.451,185.001,63.451z M185.001,37.381c-2.567,0-5.427,3.926-5.427,9.559
		s2.86,9.559,5.427,9.559s5.427-3.925,5.427-9.559S187.568,37.381,185.001,37.381z"/>
	<path style="fill:#E5AB46;" d="M151.096,0c0,18.725,15.179,33.905,33.905,33.905S218.906,18.725,218.906,0H151.096z"/>
	<path style="fill:#734F42;" d="M94.384,135.193c-9.93,0-18.008-8.08-18.008-18.01c0-3.519,2.853-6.373,6.373-6.373
		c3.52,0,6.373,2.854,6.373,6.373c0,2.902,2.361,5.264,5.263,5.264s5.264-2.361,5.264-5.264v-10.314
		c0-15.706,12.777-28.482,28.483-28.482s28.483,12.776,28.483,28.482v15.658c0,3.52-2.853,6.373-6.373,6.373
		s-6.372-2.854-6.372-6.373v-15.658c0-8.678-7.06-15.737-15.738-15.737c-8.677,0-15.738,7.06-15.738,15.737v10.314
		C112.393,127.113,104.314,135.193,94.384,135.193z"/>
	<path style="fill:#734F42;" d="M275.618,135.193c-9.93,0-18.009-8.08-18.009-18.01v-10.314c0-8.678-7.061-15.737-15.738-15.737
		c-8.678,0-15.738,7.06-15.738,15.737v15.658c0,3.52-2.853,6.373-6.372,6.373c-3.52,0-6.373-2.854-6.373-6.373v-15.658
		c0-15.706,12.778-28.482,28.483-28.482c15.705,0,28.483,12.776,28.483,28.482v10.314c0,2.902,2.361,5.264,5.264,5.264
		c2.902,0,5.263-2.361,5.263-5.264c0-3.519,2.854-6.373,6.373-6.373s6.373,2.854,6.373,6.373
		C293.626,127.113,285.548,135.193,275.618,135.193z"/>
	<path style="fill:#734F42;" d="M223.045,145.887c9.325,0,16.885-7.56,16.885-16.886c0-9.325-7.56-16.886-16.885-16.886h-76.087
		c-9.325,0-16.885,7.561-16.885,16.886c0,9.326,7.56,16.886,16.885,16.886H223.045z"/>
	<path style="fill:#734F42;" d="M98.39,254.717c-33.222,0-60.251-27.028-60.251-60.251c0-3.519,2.854-6.372,6.373-6.372
		c3.52,0,6.373,2.854,6.373,6.372c0,26.194,21.311,47.506,47.505,47.506c26.195,0,47.506-21.311,47.506-47.506V178.1
		c0-12.538,10.201-22.738,22.739-22.738s22.739,10.2,22.739,22.738c0,3.52-2.853,6.373-6.373,6.373s-6.373-2.854-6.373-6.373
		c0-5.51-4.483-9.993-9.994-9.993s-9.994,4.483-9.994,9.993v16.366C158.641,227.689,131.613,254.717,98.39,254.717z"/>
	<path style="fill:#734F42;" d="M271.612,254.717c-33.223,0-60.251-27.028-60.251-60.251V178.1c0-5.51-4.483-9.993-9.994-9.993
		c-5.51,0-9.994,4.483-9.994,9.993c0,3.52-2.853,6.373-6.373,6.373s-6.373-2.854-6.373-6.373c0-12.538,10.201-22.738,22.739-22.738
		c12.539,0,22.739,10.2,22.739,22.738v16.366c0,26.194,21.311,47.506,47.506,47.506c26.194,0,47.505-21.311,47.505-47.506
		c0-3.519,2.853-6.372,6.373-6.372s6.373,2.854,6.373,6.372C331.863,227.689,304.834,254.717,271.612,254.717z"/>
	<g>
		<path style="fill:#6FD1E6;" d="M72.421,169.111c-6.764-9.405-6.764-26.496,1.347-32.578H15.256
			c8.11,6.082,8.11,23.173,1.347,32.578c-4.303,5.786-6.851,12.956-6.851,20.721c0,19.197,15.563,34.76,34.76,34.76
			s34.76-15.563,34.76-34.76C79.272,182.067,76.725,174.898,72.421,169.111z"/>
		<path style="opacity:0.4;fill:#C4E9F2;enable-background:new    ;" d="M72.421,169.111c-3.786-5.264-5.448-12.934-4.761-19.734
			l-54.806,54.807c4.061,8.943,11.792,15.866,21.278,18.831l43.544-43.544C76.501,175.705,74.723,172.206,72.421,169.111z"/>
		<path style="fill:#E5AB46;" d="M73.769,174.383H15.256c-2.24,0-4.056-1.816-4.056-4.055c0-2.24,1.815-4.056,4.056-4.056h58.513
			c2.24,0,4.055,1.815,4.055,4.056C77.824,172.566,76.008,174.383,73.769,174.383z"/>
	</g>
	<g>
		<path style="fill:#6FD1E6;" d="M212.853,169.111c-6.764-9.405-6.764-26.496,1.347-32.578h-58.513
			c8.11,6.082,8.11,23.173,1.347,32.578c-4.303,5.786-6.851,12.956-6.851,20.721c0,19.197,15.563,34.76,34.76,34.76
			s34.76-15.563,34.76-34.76C219.704,182.067,217.156,174.898,212.853,169.111z"/>
		<path style="opacity:0.4;fill:#C4E9F2;enable-background:new    ;" d="M212.853,169.111c-3.786-5.264-5.448-12.934-4.761-19.734
			l-54.806,54.807c4.061,8.943,11.792,15.866,21.278,18.831l43.544-43.544C216.932,175.705,215.154,172.206,212.853,169.111z"/>
		<path style="fill:#E5AB46;" d="M214.2,174.383h-58.513c-2.24,0-4.056-1.816-4.056-4.055c0-2.24,1.815-4.056,4.056-4.056H214.2
			c2.24,0,4.055,1.815,4.055,4.056C218.255,172.566,216.439,174.383,214.2,174.383z"/>
	</g>
	<g>
		<path style="fill:#6FD1E6;" d="M353.399,169.111c-6.764-9.405-6.764-26.496,1.347-32.578h-58.513
			c8.111,6.082,8.111,23.173,1.347,32.578c-4.303,5.786-6.851,12.956-6.851,20.721c0,19.197,15.563,34.76,34.76,34.76
			c19.197,0,34.76-15.563,34.76-34.76C360.25,182.067,357.702,174.898,353.399,169.111z"/>
		<path style="opacity:0.4;fill:#C4E9F2;enable-background:new    ;" d="M353.399,169.111c-3.786-5.264-5.448-12.934-4.761-19.734
			l-54.805,54.807c4.061,8.943,11.792,15.866,21.277,18.831l43.545-43.544C357.479,175.705,355.701,172.206,353.399,169.111z"/>
		<path style="fill:#E5AB46;" d="M354.746,174.383h-58.513c-2.24,0-4.055-1.816-4.055-4.055c0-2.24,1.815-4.056,4.055-4.056h58.513
			c2.24,0,4.056,1.815,4.056,4.056C358.802,172.566,356.986,174.383,354.746,174.383z"/>
	</g>
</g>
<g>
</g>
<g>
</g>
<g>
</g>
<g>
</g>
<g>
</g>
<g>
</g>
<g>
</g>
<g>
</g>
<g>
</g>
<g>
</g>
<g>
</g>
<g>
</g>
<g>
</g>
<g>
</g>
<g>
</g>
</svg>
