<?xml version="1.0" encoding="iso-8859-1"?>
<!-- Generator: Adobe Illustrator 19.0.0, SVG Export Plug-In . SVG Version: 6.00 Build 0)  -->
<svg version="1.1" id="Layer_1" xmlns="http://www.w3.org/2000/svg" xmlns:xlink="http://www.w3.org/1999/xlink" x="0px" y="0px"
	 viewBox="0 0 496 496" style="enable-background:new 0 0 496 496;" xml:space="preserve">
<path style="fill:#48A00E;" d="M496,407.6V470c0,14.4-10.4,25.6-24,25.6H24c-14.4,0-24-12-24-25.6v-62.4"/>
<path style="fill:#0C4972;" d="M64,385.2c0,6.4-5.6,11.2-12,11.2l0,0c-6.4,0-12-4.8-12-11.2V130c0-6.4,5.6-11.2,12-11.2l0,0
	c6.4,0,12,4.8,12,11.2V385.2z"/>
<path style="fill:#00233F;" d="M52.8,118.8L52.8,118.8c6.4,0,11.2,4.8,11.2,11.2v255.2c0,6.4-4.8,11.2-11.2,11.2l0,0
	c-6.4,0-11.2-4.8-11.2-11.2"/>
<path style="fill:#13BC84;" d="M80,391.6c0,13.6-10.4,24-24,24H40c-13.6,0-24-10.4-24-24v-56c0-13.6,10.4-24,24-24h24
	c13.6,0,24,10.4,24,24L80,391.6z"/>
<path style="fill:#0E9E82;" d="M88,335.6v51.2c0,12.8-12,20.8-25.6,20.8H44c-13.6,0-28-8-28-20.8v-51.2"/>
<path style="fill:#87DD50;" d="M496,454c0,14.4-11.2,25.6-25.6,25.6H25.6C11.2,479.6,0,468.4,0,454v-60.8
	c0-14.4,11.2-25.6,25.6-25.6h444.8c14.4,0,25.6,11.2,25.6,25.6V454z"/>
<path style="fill:#55BF11;" d="M496,391.6v64c0,14.4-10.4,24-24,24H24c-14.4,0-24-9.6-24-24v-64"/>
<circle style="fill:#00233F;" cx="53.6" cy="424.4" r="27.2"/>
<circle style="fill:#87DD50;" cx="53.6" cy="424.4" r="12"/>
<path style="fill:#55BF11;" d="M53.6,413.2c6.4,0,12,5.6,12,12s-5.6,12-12,12"/>
<path style="fill:#50AF12;" d="M368,427.6c0,2.4-1.6,4-4,4H108c-2.4,0-4-1.6-4-4l0,0c0-2.4,1.6-4,4-4h256
	C366.4,423.6,368,425.2,368,427.6L368,427.6z"/>
<path style="fill:#46E0E0;" d="M368,419.6c0,2.4-1.6,4-4,4H108c-2.4,0-4-1.6-4-4l0,0c0-2.4,1.6-4,4-4h256
	C366.4,415.6,368,417.2,368,419.6L368,419.6z"/>
<g>
	<circle style="fill:#87DD50;" cx="384.8" cy="405.2" r="4"/>
	<circle style="fill:#87DD50;" cx="402.4" cy="405.2" r="4"/>
	<circle style="fill:#87DD50;" cx="419.2" cy="405.2" r="4"/>
	<circle style="fill:#87DD50;" cx="436.8" cy="405.2" r="4"/>
	<circle style="fill:#87DD50;" cx="454.4" cy="405.2" r="4"/>
	<circle style="fill:#87DD50;" cx="471.2" cy="405.2" r="4"/>
	<circle style="fill:#87DD50;" cx="384.8" cy="423.6" r="4"/>
	<circle style="fill:#87DD50;" cx="402.4" cy="423.6" r="4"/>
	<circle style="fill:#87DD50;" cx="419.2" cy="423.6" r="4"/>
	<circle style="fill:#87DD50;" cx="436.8" cy="423.6" r="4"/>
	<circle style="fill:#87DD50;" cx="454.4" cy="423.6" r="4"/>
	<circle style="fill:#87DD50;" cx="471.2" cy="423.6" r="4"/>
	<circle style="fill:#87DD50;" cx="384.8" cy="442.8" r="4"/>
	<circle style="fill:#87DD50;" cx="402.4" cy="442.8" r="4"/>
	<circle style="fill:#87DD50;" cx="419.2" cy="442.8" r="4"/>
	<circle style="fill:#87DD50;" cx="436.8" cy="442.8" r="4"/>
	<circle style="fill:#87DD50;" cx="454.4" cy="442.8" r="4"/>
	<circle style="fill:#87DD50;" cx="471.2" cy="442.8" r="4"/>
	<circle style="fill:#87DD50;" cx="384.8" cy="461.2" r="4"/>
	<circle style="fill:#87DD50;" cx="402.4" cy="461.2" r="4"/>
	<circle style="fill:#87DD50;" cx="419.2" cy="461.2" r="4"/>
	<circle style="fill:#87DD50;" cx="436.8" cy="461.2" r="4"/>
	<circle style="fill:#87DD50;" cx="454.4" cy="461.2" r="4"/>
	<circle style="fill:#87DD50;" cx="471.2" cy="461.2" r="4"/>
</g>
<path style="fill:#48A00E;" d="M119.2,452.4c0,4-3.2,11.2-7.2,11.2s-7.2-7.2-7.2-11.2s3.2-7.2,7.2-7.2
	C116,445.2,119.2,448.4,119.2,452.4z"/>
<circle style="fill:#FFFC97;" cx="112" cy="452.4" r="7.2"/>
<path style="fill:#EDED72;" d="M119.2,452.4c0,4-3.2,7.2-7.2,7.2s-7.2-3.2-7.2-7.2"/>
<path style="fill:#48A00E;" d="M147.2,452.4c0,4-3.2,11.2-7.2,11.2s-7.2-7.2-7.2-11.2s3.2-7.2,7.2-7.2
	C144,445.2,147.2,448.4,147.2,452.4z"/>
<circle style="fill:#FFC255;" cx="140" cy="452.4" r="7.2"/>
<path style="fill:#ED8537;" d="M147.2,452.4c0,4-3.2,7.2-7.2,7.2s-7.2-3.2-7.2-7.2"/>
<path style="fill:#48A00E;" d="M175.2,452.4c0,4-3.2,11.2-7.2,11.2s-7.2-7.2-7.2-11.2s3.2-7.2,7.2-7.2
	C172,445.2,175.2,448.4,175.2,452.4z"/>
<circle style="fill:#FFFC97;" cx="168" cy="452.4" r="7.2"/>
<path style="fill:#EDED72;" d="M175.2,452.4c0,4-3.2,7.2-7.2,7.2s-7.2-3.2-7.2-7.2"/>
<path style="fill:#48A00E;" d="M203.2,452.4c0,4-3.2,11.2-7.2,11.2s-7.2-7.2-7.2-11.2s3.2-7.2,7.2-7.2
	C200,445.2,203.2,448.4,203.2,452.4z"/>
<circle style="fill:#FFC255;" cx="196" cy="452.4" r="7.2"/>
<path style="fill:#ED8537;" d="M203.2,452.4c0,4-3.2,7.2-7.2,7.2s-7.2-3.2-7.2-7.2"/>
<path style="fill:#48A00E;" d="M231.2,452.4c0,4-3.2,11.2-7.2,11.2s-7.2-7.2-7.2-11.2s3.2-7.2,7.2-7.2
	C228,445.2,231.2,448.4,231.2,452.4z"/>
<circle style="fill:#FFFC97;" cx="224" cy="452.4" r="7.2"/>
<path style="fill:#EDED72;" d="M231.2,452.4c0,4-3.2,7.2-7.2,7.2s-7.2-3.2-7.2-7.2"/>
<path style="fill:#48A00E;" d="M259.2,452.4c0,4-3.2,11.2-7.2,11.2s-7.2-7.2-7.2-11.2s3.2-7.2,7.2-7.2
	C256,445.2,259.2,448.4,259.2,452.4z"/>
<circle style="fill:#FFC255;" cx="252" cy="452.4" r="7.2"/>
<path style="fill:#ED8537;" d="M259.2,452.4c0,4-3.2,7.2-7.2,7.2s-7.2-3.2-7.2-7.2"/>
<path style="fill:#48A00E;" d="M287.2,452.4c0,4-3.2,11.2-7.2,11.2s-7.2-7.2-7.2-11.2s3.2-7.2,7.2-7.2
	C284,445.2,287.2,448.4,287.2,452.4z"/>
<circle style="fill:#FFFC97;" cx="280" cy="452.4" r="7.2"/>
<path style="fill:#EDED72;" d="M287.2,452.4c0,4-3.2,7.2-7.2,7.2s-7.2-3.2-7.2-7.2"/>
<path style="fill:#48A00E;" d="M315.2,452.4c0,4-3.2,11.2-7.2,11.2s-7.2-7.2-7.2-11.2s3.2-7.2,7.2-7.2
	C312,445.2,315.2,448.4,315.2,452.4z"/>
<circle style="fill:#FFC255;" cx="308" cy="452.4" r="7.2"/>
<path style="fill:#ED8537;" d="M315.2,452.4c0,4-3.2,7.2-7.2,7.2s-7.2-3.2-7.2-7.2"/>
<g>
	<path style="fill:#B1EFED;" d="M90.4,137.2c-4.8,0-8-3.2-8-8c0-20-16-36.8-36.8-36.8c-4.8,0-8-3.2-8-8s3.2-8,8-8
		c28.8,0,52.8,23.2,52.8,52.8C98.4,133.2,94.4,137.2,90.4,137.2z"/>
	<path style="fill:#B1EFED;" d="M128,135.6c-4.8,0-8-3.2-8-8C120,86.8,87.2,54,46.4,54c-4.8,0-8-3.2-8-8c0-4.8,3.2-8,8-8
		C96,38,136,78.8,136,127.6C136,132.4,132.8,135.6,128,135.6z"/>
	<path style="fill:#B1EFED;" d="M166.4,129.2c-4.8,0-8-3.2-8-8c0-57.6-47.2-104.8-105.6-104.8c-4.8,0-8-3.2-8-8s3.2-8,8-8
		C120,0.4,174.4,54.8,174.4,122C174.4,126,171.2,129.2,166.4,129.2z"/>
</g>
<g>
</g>
<g>
</g>
<g>
</g>
<g>
</g>
<g>
</g>
<g>
</g>
<g>
</g>
<g>
</g>
<g>
</g>
<g>
</g>
<g>
</g>
<g>
</g>
<g>
</g>
<g>
</g>
<g>
</g>
</svg>
